<?xml version="1.0" encoding="UTF-8" standalone="no"?>
<!DOCTYPE svg PUBLIC "-//W3C//DTD SVG 1.1//EN"
 "http://www.w3.org/Graphics/SVG/1.1/DTD/svg11.dtd">
<!-- Generated by graphviz version 2.43.0 (0)
 -->
<!-- Title: snakemake_dag Pages: 1 -->
<svg width="662pt" height="764pt"
 viewBox="0.00 0.00 662.00 764.00" xmlns="http://www.w3.org/2000/svg" xmlns:xlink="http://www.w3.org/1999/xlink">
<g id="graph0" class="graph" transform="scale(1 1) rotate(0) translate(4 760)">
<title>snakemake_dag</title>
<polygon fill="white" stroke="transparent" points="-4,4 -4,-760 658,-760 658,4 -4,4"/>
<!-- 0 -->
<g id="node1" class="node">
<title>0</title>
<path fill="none" stroke="#56a2d8" stroke-width="2" d="M182,-36C182,-36 152,-36 152,-36 146,-36 140,-30 140,-24 140,-24 140,-12 140,-12 140,-6 146,0 152,0 152,0 182,0 182,0 188,0 194,-6 194,-12 194,-12 194,-24 194,-24 194,-30 188,-36 182,-36"/>
<text text-anchor="middle" x="167" y="-15.5" font-family="sans" font-size="10.00">all</text>
</g>
<!-- 1 -->
<g id="node2" class="node">
<title>1</title>
<path fill="none" stroke="#d6d856" stroke-width="2" d="M301,-468C301,-468 245,-468 245,-468 239,-468 233,-462 233,-456 233,-456 233,-444 233,-444 233,-438 239,-432 245,-432 245,-432 301,-432 301,-432 307,-432 313,-438 313,-444 313,-444 313,-456 313,-456 313,-462 307,-468 301,-468"/>
<text text-anchor="middle" x="273" y="-447.5" font-family="sans" font-size="10.00">copy_vcf_file</text>
</g>
<!-- 1&#45;&gt;0 -->
<g id="edge4" class="edge">
<title>1&#45;&gt;0</title>
<path fill="none" stroke="grey" stroke-width="2" d="M282.32,-431.63C295.5,-405.41 318,-353.81 318,-307 318,-307 318,-307 318,-161 318,-119.4 316.99,-102.78 289,-72 266.68,-47.46 231,-33.77 203.97,-26.48"/>
<polygon fill="grey" stroke="grey" stroke-width="2" points="204.64,-23.04 194.09,-23.99 202.93,-29.83 204.64,-23.04"/>
</g>
<!-- 12 -->
<g id="node13" class="node">
<title>12</title>
<path fill="none" stroke="#9fd856" stroke-width="2" d="M113,-396C113,-396 39,-396 39,-396 33,-396 27,-390 27,-384 27,-384 27,-372 27,-372 27,-366 33,-360 39,-360 39,-360 113,-360 113,-360 119,-360 125,-366 125,-372 125,-372 125,-384 125,-384 125,-390 119,-396 113,-396"/>
<text text-anchor="middle" x="76" y="-375.5" font-family="sans" font-size="10.00">snv_indels_tabix</text>
</g>
<!-- 1&#45;&gt;12 -->
<g id="edge21" class="edge">
<title>1&#45;&gt;12</title>
<path fill="none" stroke="grey" stroke-width="2" d="M232.66,-434.67C204.09,-424.52 165.36,-410.75 133.56,-399.45"/>
<polygon fill="grey" stroke="grey" stroke-width="2" points="134.53,-396.08 123.93,-396.03 132.18,-402.68 134.53,-396.08"/>
</g>
<!-- 2 -->
<g id="node3" class="node">
<title>2</title>
<path fill="none" stroke="#d87d56" stroke-width="2" d="M240.5,-324C240.5,-324 115.5,-324 115.5,-324 109.5,-324 103.5,-318 103.5,-312 103.5,-312 103.5,-300 103.5,-300 103.5,-294 109.5,-288 115.5,-288 115.5,-288 240.5,-288 240.5,-288 246.5,-288 252.5,-294 252.5,-300 252.5,-300 252.5,-312 252.5,-312 252.5,-318 246.5,-324 240.5,-324"/>
<text text-anchor="middle" x="178" y="-303.5" font-family="sans" font-size="10.00">snv_indels_bcftools_concat</text>
</g>
<!-- 11 -->
<g id="node12" class="node">
<title>11</title>
<path fill="none" stroke="#56d0d8" stroke-width="2" d="M216,-252C216,-252 140,-252 140,-252 134,-252 128,-246 128,-240 128,-240 128,-228 128,-228 128,-222 134,-216 140,-216 140,-216 216,-216 216,-216 222,-216 228,-222 228,-228 228,-228 228,-240 228,-240 228,-246 222,-252 216,-252"/>
<text text-anchor="middle" x="178" y="-231.5" font-family="sans" font-size="10.00">snv_indels_bgzip</text>
</g>
<!-- 2&#45;&gt;11 -->
<g id="edge19" class="edge">
<title>2&#45;&gt;11</title>
<path fill="none" stroke="grey" stroke-width="2" d="M172.08,-287.7C171.29,-279.98 171.06,-270.71 171.4,-262.11"/>
<polygon fill="grey" stroke="grey" stroke-width="2" points="174.9,-262.32 172.1,-252.1 167.92,-261.84 174.9,-262.32"/>
</g>
<!-- 3 -->
<g id="node4" class="node">
<title>3</title>
<path fill="none" stroke="#d87556" stroke-width="2" d="M464,-324C464,-324 384,-324 384,-324 378,-324 372,-318 372,-312 372,-312 372,-300 372,-300 372,-294 378,-288 384,-288 384,-288 464,-288 464,-288 470,-288 476,-294 476,-300 476,-300 476,-312 476,-312 476,-318 470,-324 464,-324"/>
<text text-anchor="middle" x="424" y="-303.5" font-family="sans" font-size="10.00">bcftools_reheader</text>
</g>
<!-- 3&#45;&gt;11 -->
<g id="edge18" class="edge">
<title>3&#45;&gt;11</title>
<path fill="none" stroke="grey" stroke-width="2" d="M371.83,-290.15C332.74,-279.03 279.18,-263.79 238.26,-252.15"/>
<polygon fill="grey" stroke="grey" stroke-width="2" points="238.99,-248.72 228.41,-249.35 237.07,-255.45 238.99,-248.72"/>
</g>
<!-- 4 -->
<g id="node5" class="node">
<title>4</title>
<path fill="none" stroke="#d89c56" stroke-width="2" d="M467,-396C467,-396 407,-396 407,-396 401,-396 395,-390 395,-384 395,-384 395,-372 395,-372 395,-366 401,-360 407,-360 407,-360 467,-360 467,-360 473,-360 479,-366 479,-372 479,-372 479,-384 479,-384 479,-390 473,-396 467,-396"/>
<text text-anchor="middle" x="437" y="-375.5" font-family="sans" font-size="10.00">dotnet_pisces</text>
</g>
<!-- 4&#45;&gt;3 -->
<g id="edge8" class="edge">
<title>4&#45;&gt;3</title>
<path fill="none" stroke="grey" stroke-width="2" d="M433.79,-359.7C432.35,-351.98 430.63,-342.71 429.04,-334.11"/>
<polygon fill="grey" stroke="grey" stroke-width="2" points="432.44,-333.3 427.18,-324.1 425.56,-334.58 432.44,-333.3"/>
</g>
<!-- 5 -->
<g id="node6" class="node">
<title>5</title>
<path fill="none" stroke="#56d8d8" stroke-width="2" d="M474,-540C474,-540 310,-540 310,-540 304,-540 298,-534 298,-528 298,-528 298,-516 298,-516 298,-510 304,-504 310,-504 310,-504 474,-504 474,-504 480,-504 486,-510 486,-516 486,-516 486,-528 486,-528 486,-534 480,-540 474,-540"/>
<text text-anchor="middle" x="392" y="-519.5" font-family="sans" font-size="10.00">alignment_samtools_extract_reads</text>
</g>
<!-- 5&#45;&gt;4 -->
<g id="edge9" class="edge">
<title>5&#45;&gt;4</title>
<path fill="none" stroke="grey" stroke-width="2" d="M377.47,-503.68C363.92,-485.29 347.55,-455.69 360,-432 366.56,-419.52 377.54,-409.4 389.19,-401.48"/>
<polygon fill="grey" stroke="grey" stroke-width="2" points="391.13,-404.4 397.73,-396.1 387.4,-398.47 391.13,-404.4"/>
</g>
<!-- 9 -->
<g id="node10" class="node">
<title>9</title>
<path fill="none" stroke="#56d86b" stroke-width="2" d="M505.5,-468C505.5,-468 380.5,-468 380.5,-468 374.5,-468 368.5,-462 368.5,-456 368.5,-456 368.5,-444 368.5,-444 368.5,-438 374.5,-432 380.5,-432 380.5,-432 505.5,-432 505.5,-432 511.5,-432 517.5,-438 517.5,-444 517.5,-444 517.5,-456 517.5,-456 517.5,-462 511.5,-468 505.5,-468"/>
<text text-anchor="middle" x="443" y="-447.5" font-family="sans" font-size="10.00">alignment_samtools_index</text>
</g>
<!-- 5&#45;&gt;9 -->
<g id="edge16" class="edge">
<title>5&#45;&gt;9</title>
<path fill="none" stroke="grey" stroke-width="2" d="M398.69,-503.7C403.89,-495.39 411.06,-485.28 418.18,-476.14"/>
<polygon fill="grey" stroke="grey" stroke-width="2" points="421.1,-478.09 424.64,-468.1 415.65,-473.7 421.1,-478.09"/>
</g>
<!-- 6 -->
<g id="node7" class="node">
<title>6</title>
<path fill="none" stroke="#d85e56" stroke-width="2" d="M486,-612C486,-612 420,-612 420,-612 414,-612 408,-606 408,-600 408,-600 408,-588 408,-588 408,-582 414,-576 420,-576 420,-576 486,-576 486,-576 492,-576 498,-582 498,-588 498,-588 498,-600 498,-600 498,-606 492,-612 486,-612"/>
<text text-anchor="middle" x="453" y="-591.5" font-family="sans" font-size="10.00">alignment_star</text>
</g>
<!-- 6&#45;&gt;5 -->
<g id="edge13" class="edge">
<title>6&#45;&gt;5</title>
<path fill="none" stroke="grey" stroke-width="2" d="M437.92,-575.7C430.61,-567.3 421.69,-557.07 413.66,-547.86"/>
<polygon fill="grey" stroke="grey" stroke-width="2" points="416.11,-545.34 406.91,-540.1 410.84,-549.94 416.11,-545.34"/>
</g>
<!-- 6&#45;&gt;9 -->
<g id="edge17" class="edge">
<title>6&#45;&gt;9</title>
<path fill="none" stroke="grey" stroke-width="2" d="M471.6,-575.76C480.53,-566.2 490.29,-553.53 495,-540 500.26,-524.89 501.05,-518.81 495,-504 490.51,-493.02 482.53,-483.08 474.15,-474.86"/>
<polygon fill="grey" stroke="grey" stroke-width="2" points="476.49,-472.26 466.75,-468.09 471.76,-477.42 476.49,-472.26"/>
</g>
<!-- 7 -->
<g id="node8" class="node">
<title>7</title>
<path fill="none" stroke="#568ad8" stroke-width="2" d="M503.5,-684C503.5,-684 402.5,-684 402.5,-684 396.5,-684 390.5,-678 390.5,-672 390.5,-672 390.5,-660 390.5,-660 390.5,-654 396.5,-648 402.5,-648 402.5,-648 503.5,-648 503.5,-648 509.5,-648 515.5,-654 515.5,-660 515.5,-660 515.5,-672 515.5,-672 515.5,-678 509.5,-684 503.5,-684"/>
<text text-anchor="middle" x="453" y="-663.5" font-family="sans" font-size="10.00">prealignment_merged</text>
</g>
<!-- 7&#45;&gt;6 -->
<g id="edge14" class="edge">
<title>7&#45;&gt;6</title>
<path fill="none" stroke="grey" stroke-width="2" d="M453,-647.7C453,-639.98 453,-630.71 453,-622.11"/>
<polygon fill="grey" stroke="grey" stroke-width="2" points="456.5,-622.1 453,-612.1 449.5,-622.1 456.5,-622.1"/>
</g>
<!-- 8 -->
<g id="node9" class="node">
<title>8</title>
<path fill="none" stroke="#56a9d8" stroke-width="2" d="M505.5,-756C505.5,-756 400.5,-756 400.5,-756 394.5,-756 388.5,-750 388.5,-744 388.5,-744 388.5,-732 388.5,-732 388.5,-726 394.5,-720 400.5,-720 400.5,-720 505.5,-720 505.5,-720 511.5,-720 517.5,-726 517.5,-732 517.5,-732 517.5,-744 517.5,-744 517.5,-750 511.5,-756 505.5,-756"/>
<text text-anchor="middle" x="453" y="-735.5" font-family="sans" font-size="10.00">prealignment_fastp_pe</text>
</g>
<!-- 8&#45;&gt;7 -->
<g id="edge15" class="edge">
<title>8&#45;&gt;7</title>
<path fill="none" stroke="grey" stroke-width="2" d="M453,-719.7C453,-711.98 453,-702.71 453,-694.11"/>
<polygon fill="grey" stroke="grey" stroke-width="2" points="456.5,-694.1 453,-684.1 449.5,-694.1 456.5,-694.1"/>
</g>
<!-- 9&#45;&gt;4 -->
<g id="edge10" class="edge">
<title>9&#45;&gt;4</title>
<path fill="none" stroke="grey" stroke-width="2" d="M441.52,-431.7C440.86,-423.98 440.06,-414.71 439.32,-406.11"/>
<polygon fill="grey" stroke="grey" stroke-width="2" points="442.81,-405.77 438.47,-396.1 435.83,-406.37 442.81,-405.77"/>
</g>
<!-- 9&#45;&gt;5 -->
<g id="edge12" class="edge">
<title>9&#45;&gt;5</title>
<path fill="none" stroke="grey" stroke-width="2" d="M436.43,-468.1C431.27,-476.38 424.11,-486.49 416.99,-495.64"/>
<polygon fill="grey" stroke="grey" stroke-width="2" points="414.06,-493.71 410.52,-503.7 419.51,-498.09 414.06,-493.71"/>
</g>
<!-- 10 -->
<g id="node11" class="node">
<title>10</title>
<path fill="none" stroke="#566bd8" stroke-width="2" d="M642,-468C642,-468 548,-468 548,-468 542,-468 536,-462 536,-456 536,-456 536,-444 536,-444 536,-438 542,-432 548,-432 548,-432 642,-432 642,-432 648,-432 654,-438 654,-444 654,-444 654,-456 654,-456 654,-462 648,-468 642,-468"/>
<text text-anchor="middle" x="595" y="-447.5" font-family="sans" font-size="10.00">snv_indels_bed_split</text>
</g>
<!-- 10&#45;&gt;4 -->
<g id="edge11" class="edge">
<title>10&#45;&gt;4</title>
<path fill="none" stroke="grey" stroke-width="2" d="M556.35,-431.88C534.75,-422.31 507.65,-410.3 484.73,-400.15"/>
<polygon fill="grey" stroke="grey" stroke-width="2" points="486.09,-396.92 475.53,-396.07 483.25,-403.32 486.09,-396.92"/>
</g>
<!-- 11&#45;&gt;1 -->
<g id="edge5" class="edge">
<title>11&#45;&gt;1</title>
<path fill="none" stroke="grey" stroke-width="2" d="M220.09,-252C235.58,-260.46 251.62,-272.29 261,-288 285.64,-329.25 282.66,-387.46 278,-421.41"/>
<polygon fill="grey" stroke="grey" stroke-width="2" points="274.51,-421.12 276.46,-431.53 281.43,-422.17 274.51,-421.12"/>
</g>
<!-- 11&#45;&gt;2 -->
<g id="edge7" class="edge">
<title>11&#45;&gt;2</title>
<path fill="none" stroke="grey" stroke-width="2" d="M183.9,-252.1C184.7,-259.79 184.94,-269.05 184.6,-277.67"/>
<polygon fill="grey" stroke="grey" stroke-width="2" points="181.11,-277.48 183.92,-287.7 188.09,-277.96 181.11,-277.48"/>
</g>
<!-- 11&#45;&gt;12 -->
<g id="edge20" class="edge">
<title>11&#45;&gt;12</title>
<path fill="none" stroke="grey" stroke-width="2" d="M137.27,-252.05C121.48,-260.62 104.67,-272.53 94,-288 81.52,-306.09 77.3,-330.87 76.04,-349.69"/>
<polygon fill="grey" stroke="grey" stroke-width="2" points="72.54,-349.58 75.6,-359.72 79.53,-349.88 72.54,-349.58"/>
</g>
<!-- 15 -->
<g id="node16" class="node">
<title>15</title>
<path fill="none" stroke="#a7d856" stroke-width="2" d="M156,-180C156,-180 50,-180 50,-180 44,-180 38,-174 38,-168 38,-168 38,-156 38,-156 38,-150 44,-144 50,-144 50,-144 156,-144 156,-144 162,-144 168,-150 168,-156 168,-156 168,-168 168,-168 168,-174 162,-180 156,-180"/>
<text text-anchor="middle" x="103" y="-159.5" font-family="sans" font-size="10.00">create_background_file</text>
</g>
<!-- 11&#45;&gt;15 -->
<g id="edge24" class="edge">
<title>11&#45;&gt;15</title>
<path fill="none" stroke="grey" stroke-width="2" d="M159.46,-215.7C150.2,-207.05 138.84,-196.45 128.74,-187.03"/>
<polygon fill="grey" stroke="grey" stroke-width="2" points="131.02,-184.37 121.33,-180.1 126.25,-189.49 131.02,-184.37"/>
</g>
<!-- 12&#45;&gt;0 -->
<g id="edge1" class="edge">
<title>12&#45;&gt;0</title>
<path fill="none" stroke="grey" stroke-width="2" d="M59.51,-359.77C37.16,-334.53 0,-285.05 0,-235 0,-235 0,-235 0,-161 0,-119.26 1.14,-102.16 30,-72 56.53,-44.27 99.21,-30.83 129.89,-24.46"/>
<polygon fill="grey" stroke="grey" stroke-width="2" points="130.63,-27.88 139.79,-22.56 129.31,-21 130.63,-27.88"/>
</g>
<!-- 12&#45;&gt;2 -->
<g id="edge6" class="edge">
<title>12&#45;&gt;2</title>
<path fill="none" stroke="grey" stroke-width="2" d="M100.95,-359.88C114.04,-350.89 130.26,-339.76 144.44,-330.03"/>
<polygon fill="grey" stroke="grey" stroke-width="2" points="146.69,-332.73 152.95,-324.19 142.73,-326.96 146.69,-332.73"/>
</g>
<!-- 12&#45;&gt;15 -->
<g id="edge23" class="edge">
<title>12&#45;&gt;15</title>
<path fill="none" stroke="grey" stroke-width="2" d="M75.21,-359.88C74.62,-341.92 74.3,-312.89 77,-288 80.71,-253.87 89.44,-215.29 95.77,-190.13"/>
<polygon fill="grey" stroke="grey" stroke-width="2" points="99.22,-190.78 98.31,-180.22 92.44,-189.04 99.22,-190.78"/>
</g>
<!-- 13 -->
<g id="node14" class="node">
<title>13</title>
<path fill="none" stroke="#56b1d8" stroke-width="2" d="M267.5,-108C267.5,-108 196.5,-108 196.5,-108 190.5,-108 184.5,-102 184.5,-96 184.5,-96 184.5,-84 184.5,-84 184.5,-78 190.5,-72 196.5,-72 196.5,-72 267.5,-72 267.5,-72 273.5,-72 279.5,-78 279.5,-84 279.5,-84 279.5,-96 279.5,-96 279.5,-102 273.5,-108 267.5,-108"/>
<text text-anchor="middle" x="232" y="-87.5" font-family="sans" font-size="10.00">copy_config_file</text>
</g>
<!-- 13&#45;&gt;0 -->
<g id="edge3" class="edge">
<title>13&#45;&gt;0</title>
<path fill="none" stroke="grey" stroke-width="2" d="M215.93,-71.7C208.06,-63.22 198.44,-52.86 189.83,-43.58"/>
<polygon fill="grey" stroke="grey" stroke-width="2" points="192.25,-41.05 182.88,-36.1 187.12,-45.81 192.25,-41.05"/>
</g>
<!-- 14 -->
<g id="node15" class="node">
<title>14</title>
<path fill="none" stroke="#569ad8" stroke-width="2" d="M154.5,-108C154.5,-108 51.5,-108 51.5,-108 45.5,-108 39.5,-102 39.5,-96 39.5,-96 39.5,-84 39.5,-84 39.5,-78 45.5,-72 51.5,-72 51.5,-72 154.5,-72 154.5,-72 160.5,-72 166.5,-78 166.5,-84 166.5,-84 166.5,-96 166.5,-96 166.5,-102 160.5,-108 154.5,-108"/>
<text text-anchor="middle" x="103" y="-87.5" font-family="sans" font-size="10.00">copy_reference_tsvfile</text>
</g>
<!-- 14&#45;&gt;0 -->
<g id="edge2" class="edge">
<title>14&#45;&gt;0</title>
<path fill="none" stroke="grey" stroke-width="2" d="M118.82,-71.7C126.57,-63.22 136.04,-52.86 144.52,-43.58"/>
<polygon fill="grey" stroke="grey" stroke-width="2" points="147.2,-45.85 151.36,-36.1 142.03,-41.12 147.2,-45.85"/>
</g>
<!-- 15&#45;&gt;14 -->
<g id="edge22" class="edge">
<title>15&#45;&gt;14</title>
<path fill="none" stroke="grey" stroke-width="2" d="M103,-143.7C103,-135.98 103,-126.71 103,-118.11"/>
<polygon fill="grey" stroke="grey" stroke-width="2" points="106.5,-118.1 103,-108.1 99.5,-118.1 106.5,-118.1"/>
</g>
</g>
</svg>
