<?xml version="1.0" encoding="UTF-8" standalone="no"?>
<!DOCTYPE svg PUBLIC "-//W3C//DTD SVG 1.1//EN"
 "http://www.w3.org/Graphics/SVG/1.1/DTD/svg11.dtd">
<!-- Generated by graphviz version 2.43.0 (0)
 -->
<!-- Title: snakemake_dag Pages: 1 -->
<svg width="1618pt" height="980pt"
 viewBox="0.00 0.00 1617.50 980.00" xmlns="http://www.w3.org/2000/svg" xmlns:xlink="http://www.w3.org/1999/xlink">
<g id="graph0" class="graph" transform="scale(1 1) rotate(0) translate(4 976)">
<title>snakemake_dag</title>
<polygon fill="white" stroke="transparent" points="-4,4 -4,-976 1613.5,-976 1613.5,4 -4,4"/>
<!-- 0 -->
<g id="node1" class="node">
<title>0</title>
<path fill="none" stroke="#59d856" stroke-width="2" d="M688.5,-36C688.5,-36 658.5,-36 658.5,-36 652.5,-36 646.5,-30 646.5,-24 646.5,-24 646.5,-12 646.5,-12 646.5,-6 652.5,0 658.5,0 658.5,0 688.5,0 688.5,0 694.5,0 700.5,-6 700.5,-12 700.5,-12 700.5,-24 700.5,-24 700.5,-30 694.5,-36 688.5,-36"/>
<text text-anchor="middle" x="673.5" y="-15.5" font-family="sans" font-size="10.00">all</text>
</g>
<!-- 1 -->
<g id="node2" class="node">
<title>1</title>
<path fill="none" stroke="#d8bc56" stroke-width="2" d="M1096.5,-252C1096.5,-252 1038.5,-252 1038.5,-252 1032.5,-252 1026.5,-246 1026.5,-240 1026.5,-240 1026.5,-228 1026.5,-228 1026.5,-222 1032.5,-216 1038.5,-216 1038.5,-216 1096.5,-216 1096.5,-216 1102.5,-216 1108.5,-222 1108.5,-228 1108.5,-228 1108.5,-240 1108.5,-240 1108.5,-246 1102.5,-252 1096.5,-252"/>
<text text-anchor="middle" x="1067.5" y="-231.5" font-family="sans" font-size="10.00">copy_multiqc</text>
</g>
<!-- 1&#45;&gt;0 -->
<g id="edge1" class="edge">
<title>1&#45;&gt;0</title>
<path fill="none" stroke="grey" stroke-width="2" d="M1032.94,-215.91C988.31,-193.31 908.87,-151.29 845.5,-108 824.64,-93.75 823.18,-84.97 801.5,-72 772.4,-54.59 736.53,-40.28 710.17,-30.94"/>
<polygon fill="grey" stroke="grey" stroke-width="2" points="711.16,-27.58 700.57,-27.6 708.87,-34.19 711.16,-27.58"/>
</g>
<!-- 2 -->
<g id="node3" class="node">
<title>2</title>
<path fill="none" stroke="#d6d856" stroke-width="2" d="M1302.5,-540C1302.5,-540 1256.5,-540 1256.5,-540 1250.5,-540 1244.5,-534 1244.5,-528 1244.5,-528 1244.5,-516 1244.5,-516 1244.5,-510 1250.5,-504 1256.5,-504 1256.5,-504 1302.5,-504 1302.5,-504 1308.5,-504 1314.5,-510 1314.5,-516 1314.5,-516 1314.5,-528 1314.5,-528 1314.5,-534 1308.5,-540 1302.5,-540"/>
<text text-anchor="middle" x="1279.5" y="-519.5" font-family="sans" font-size="10.00">qc_multiqc</text>
</g>
<!-- 2&#45;&gt;1 -->
<g id="edge10" class="edge">
<title>2&#45;&gt;1</title>
<path fill="none" stroke="grey" stroke-width="2" d="M1266.87,-503.97C1231.09,-455.7 1128.88,-317.8 1086.38,-260.47"/>
<polygon fill="grey" stroke="grey" stroke-width="2" points="1089.1,-258.26 1080.33,-252.31 1083.47,-262.42 1089.1,-258.26"/>
</g>
<!-- 3 -->
<g id="node4" class="node">
<title>3</title>
<path fill="none" stroke="#568ad8" stroke-width="2" d="M909,-612C909,-612 828,-612 828,-612 822,-612 816,-606 816,-600 816,-600 816,-588 816,-588 816,-582 822,-576 828,-576 828,-576 909,-576 909,-576 915,-576 921,-582 921,-588 921,-588 921,-600 921,-600 921,-606 915,-612 909,-612"/>
<text text-anchor="middle" x="868.5" y="-591.5" font-family="sans" font-size="10.00">qc_mosdepth_bed</text>
</g>
<!-- 3&#45;&gt;2 -->
<g id="edge13" class="edge">
<title>3&#45;&gt;2</title>
<path fill="none" stroke="grey" stroke-width="2" d="M921.16,-578.11C924.31,-577.36 927.44,-576.65 930.5,-576 1038.48,-553.08 1167.27,-536.18 1234.14,-528.17"/>
<polygon fill="grey" stroke="grey" stroke-width="2" points="1234.81,-531.61 1244.33,-526.96 1233.99,-524.66 1234.81,-531.61"/>
</g>
<!-- 32 -->
<g id="node33" class="node">
<title>32</title>
<path fill="none" stroke="#5682d8" stroke-width="2" d="M633.5,-324C633.5,-324 559.5,-324 559.5,-324 553.5,-324 547.5,-318 547.5,-312 547.5,-312 547.5,-300 547.5,-300 547.5,-294 553.5,-288 559.5,-288 559.5,-288 633.5,-288 633.5,-288 639.5,-288 645.5,-294 645.5,-300 645.5,-300 645.5,-312 645.5,-312 645.5,-318 639.5,-324 633.5,-324"/>
<text text-anchor="middle" x="596.5" y="-303.5" font-family="sans" font-size="10.00">summary_report</text>
</g>
<!-- 3&#45;&gt;32 -->
<g id="edge60" class="edge">
<title>3&#45;&gt;32</title>
<path fill="none" stroke="grey" stroke-width="2" d="M852.6,-575.94C816.54,-537.28 725.66,-440.17 648.5,-360 639.42,-350.57 629.36,-340.28 620.53,-331.29"/>
<polygon fill="grey" stroke="grey" stroke-width="2" points="622.96,-328.77 613.45,-324.1 617.97,-333.68 622.96,-328.77"/>
</g>
<!-- 4 -->
<g id="node5" class="node">
<title>4</title>
<path fill="none" stroke="#9fd856" stroke-width="2" d="M990.5,-828C990.5,-828 924.5,-828 924.5,-828 918.5,-828 912.5,-822 912.5,-816 912.5,-816 912.5,-804 912.5,-804 912.5,-798 918.5,-792 924.5,-792 924.5,-792 990.5,-792 990.5,-792 996.5,-792 1002.5,-798 1002.5,-804 1002.5,-804 1002.5,-816 1002.5,-816 1002.5,-822 996.5,-828 990.5,-828"/>
<text text-anchor="middle" x="957.5" y="-807.5" font-family="sans" font-size="10.00">alignment_star</text>
</g>
<!-- 4&#45;&gt;2 -->
<g id="edge16" class="edge">
<title>4&#45;&gt;2</title>
<path fill="none" stroke="grey" stroke-width="2" d="M1002.72,-807.37C1096.36,-802.07 1315.39,-779.58 1466.5,-684 1502.94,-660.96 1516.02,-652.24 1531.5,-612 1537.24,-597.07 1541.58,-588.42 1531.5,-576 1505.96,-544.53 1390.2,-531.05 1324.82,-525.87"/>
<polygon fill="grey" stroke="grey" stroke-width="2" points="1325.02,-522.37 1314.78,-525.1 1324.49,-529.35 1325.02,-522.37"/>
</g>
<!-- 4&#45;&gt;3 -->
<g id="edge19" class="edge">
<title>4&#45;&gt;3</title>
<path fill="none" stroke="grey" stroke-width="2" d="M959.17,-791.7C961.32,-760.69 962.07,-694.55 935.5,-648 928.76,-636.2 918.26,-626.05 907.56,-617.89"/>
<polygon fill="grey" stroke="grey" stroke-width="2" points="909.56,-615.02 899.39,-612.04 905.48,-620.71 909.56,-615.02"/>
</g>
<!-- 7 -->
<g id="node8" class="node">
<title>7</title>
<path fill="none" stroke="#5673d8" stroke-width="2" d="M914,-684C914,-684 789,-684 789,-684 783,-684 777,-678 777,-672 777,-672 777,-660 777,-660 777,-654 783,-648 789,-648 789,-648 914,-648 914,-648 920,-648 926,-654 926,-660 926,-660 926,-672 926,-672 926,-678 920,-684 914,-684"/>
<text text-anchor="middle" x="851.5" y="-663.5" font-family="sans" font-size="10.00">alignment_samtools_index</text>
</g>
<!-- 4&#45;&gt;7 -->
<g id="edge23" class="edge">
<title>4&#45;&gt;7</title>
<path fill="none" stroke="grey" stroke-width="2" d="M947.64,-791.67C936.9,-773.28 918.79,-743.67 900.5,-720 893.11,-710.43 884.33,-700.55 876.26,-691.95"/>
<polygon fill="grey" stroke="grey" stroke-width="2" points="878.54,-689.27 869.11,-684.46 873.48,-694.11 878.54,-689.27"/>
</g>
<!-- 8 -->
<g id="node9" class="node">
<title>8</title>
<path fill="none" stroke="#5692d8" stroke-width="2" d="M1445,-684C1445,-684 1362,-684 1362,-684 1356,-684 1350,-678 1350,-672 1350,-672 1350,-660 1350,-660 1350,-654 1356,-648 1362,-648 1362,-648 1445,-648 1445,-648 1451,-648 1457,-654 1457,-660 1457,-660 1457,-672 1457,-672 1457,-678 1451,-684 1445,-684"/>
<text text-anchor="middle" x="1403.5" y="-663.5" font-family="sans" font-size="10.00">qc_samtools_stats</text>
</g>
<!-- 4&#45;&gt;8 -->
<g id="edge26" class="edge">
<title>4&#45;&gt;8</title>
<path fill="none" stroke="grey" stroke-width="2" d="M1002.66,-798.71C1044.44,-788.86 1108.12,-773.02 1162.5,-756 1228.74,-735.26 1303.51,-706.85 1351.96,-687.75"/>
<polygon fill="grey" stroke="grey" stroke-width="2" points="1353.27,-691 1361.28,-684.06 1350.7,-684.49 1353.27,-691"/>
</g>
<!-- 10 -->
<g id="node11" class="node">
<title>10</title>
<path fill="none" stroke="#56d892" stroke-width="2" d="M1095.5,-612C1095.5,-612 951.5,-612 951.5,-612 945.5,-612 939.5,-606 939.5,-600 939.5,-600 939.5,-588 939.5,-588 939.5,-582 945.5,-576 951.5,-576 951.5,-576 1095.5,-576 1095.5,-576 1101.5,-576 1107.5,-582 1107.5,-588 1107.5,-588 1107.5,-600 1107.5,-600 1107.5,-606 1101.5,-612 1095.5,-612"/>
<text text-anchor="middle" x="1023.5" y="-591.5" font-family="sans" font-size="10.00">qc_rseqc_gene_body_coverage</text>
</g>
<!-- 4&#45;&gt;10 -->
<g id="edge27" class="edge">
<title>4&#45;&gt;10</title>
<path fill="none" stroke="grey" stroke-width="2" d="M962.79,-791.85C974.25,-754.68 1001.47,-666.44 1015.23,-621.82"/>
<polygon fill="grey" stroke="grey" stroke-width="2" points="1018.58,-622.82 1018.19,-612.23 1011.89,-620.76 1018.58,-622.82"/>
</g>
<!-- 11 -->
<g id="node12" class="node">
<title>11</title>
<path fill="none" stroke="#d8d356" stroke-width="2" d="M1493.5,-612C1493.5,-612 1381.5,-612 1381.5,-612 1375.5,-612 1369.5,-606 1369.5,-600 1369.5,-600 1369.5,-588 1369.5,-588 1369.5,-582 1375.5,-576 1381.5,-576 1381.5,-576 1493.5,-576 1493.5,-576 1499.5,-576 1505.5,-582 1505.5,-588 1505.5,-588 1505.5,-600 1505.5,-600 1505.5,-606 1499.5,-612 1493.5,-612"/>
<text text-anchor="middle" x="1437.5" y="-591.5" font-family="sans" font-size="10.00">qc_rseqc_inner_distance</text>
</g>
<!-- 4&#45;&gt;11 -->
<g id="edge29" class="edge">
<title>4&#45;&gt;11</title>
<path fill="none" stroke="grey" stroke-width="2" d="M995.97,-791.85C1082.97,-753.06 1294.66,-658.68 1389.8,-616.27"/>
<polygon fill="grey" stroke="grey" stroke-width="2" points="1391.47,-619.35 1399.18,-612.08 1388.62,-612.96 1391.47,-619.35"/>
</g>
<!-- 13 -->
<g id="node14" class="node">
<title>13</title>
<path fill="none" stroke="#ced856" stroke-width="2" d="M879,-756C879,-756 816,-756 816,-756 810,-756 804,-750 804,-744 804,-744 804,-732 804,-732 804,-726 810,-720 816,-720 816,-720 879,-720 879,-720 885,-720 891,-726 891,-732 891,-732 891,-744 891,-744 891,-750 885,-756 879,-756"/>
<text text-anchor="middle" x="847.5" y="-735.5" font-family="sans" font-size="10.00">copy_bam_file</text>
</g>
<!-- 4&#45;&gt;13 -->
<g id="edge31" class="edge">
<title>4&#45;&gt;13</title>
<path fill="none" stroke="grey" stroke-width="2" d="M930.59,-791.88C916.34,-782.81 898.65,-771.55 883.26,-761.76"/>
<polygon fill="grey" stroke="grey" stroke-width="2" points="884.83,-758.61 874.51,-756.19 881.07,-764.51 884.83,-758.61"/>
</g>
<!-- 24 -->
<g id="node25" class="node">
<title>24</title>
<path fill="none" stroke="#d89c56" stroke-width="2" d="M633.5,-612C633.5,-612 469.5,-612 469.5,-612 463.5,-612 457.5,-606 457.5,-600 457.5,-600 457.5,-588 457.5,-588 457.5,-582 463.5,-576 469.5,-576 469.5,-576 633.5,-576 633.5,-576 639.5,-576 645.5,-582 645.5,-588 645.5,-588 645.5,-600 645.5,-600 645.5,-606 639.5,-612 633.5,-612"/>
<text text-anchor="middle" x="551.5" y="-591.5" font-family="sans" font-size="10.00">alignment_samtools_extract_reads</text>
</g>
<!-- 4&#45;&gt;24 -->
<g id="edge49" class="edge">
<title>4&#45;&gt;24</title>
<path fill="none" stroke="grey" stroke-width="2" d="M912.25,-797.7C879.05,-788.58 833.34,-774.27 795.5,-756 713.06,-716.2 625.66,-652.56 581.22,-618.43"/>
<polygon fill="grey" stroke="grey" stroke-width="2" points="583.22,-615.56 573.17,-612.21 578.94,-621.1 583.22,-615.56"/>
</g>
<!-- 28 -->
<g id="node29" class="node">
<title>28</title>
<path fill="none" stroke="#d85e56" stroke-width="2" d="M495.5,-540C495.5,-540 433.5,-540 433.5,-540 427.5,-540 421.5,-534 421.5,-528 421.5,-528 421.5,-516 421.5,-516 421.5,-510 427.5,-504 433.5,-504 433.5,-504 495.5,-504 495.5,-504 501.5,-504 507.5,-510 507.5,-516 507.5,-516 507.5,-528 507.5,-528 507.5,-534 501.5,-540 495.5,-540"/>
<text text-anchor="middle" x="464.5" y="-519.5" font-family="sans" font-size="10.00">fusions_arriba</text>
</g>
<!-- 4&#45;&gt;28 -->
<g id="edge55" class="edge">
<title>4&#45;&gt;28</title>
<path fill="none" stroke="grey" stroke-width="2" d="M912.31,-807.99C788.13,-804.73 448.65,-792.55 415.5,-756 361.75,-696.74 386.34,-650.5 415.5,-576 419.7,-565.28 427.19,-555.43 435.08,-547.2"/>
<polygon fill="grey" stroke="grey" stroke-width="2" points="437.62,-549.61 442.35,-540.13 432.74,-544.59 437.62,-549.61"/>
</g>
<!-- 30 -->
<g id="node31" class="node">
<title>30</title>
<path fill="none" stroke="#88d856" stroke-width="2" d="M671.5,-468C671.5,-468 545.5,-468 545.5,-468 539.5,-468 533.5,-462 533.5,-456 533.5,-456 533.5,-444 533.5,-444 533.5,-438 539.5,-432 545.5,-432 545.5,-432 671.5,-432 671.5,-432 677.5,-432 683.5,-438 683.5,-444 683.5,-444 683.5,-456 683.5,-456 683.5,-462 677.5,-468 671.5,-468"/>
<text text-anchor="middle" x="608.5" y="-447.5" font-family="sans" font-size="10.00">fusions_arriba_draw_fusion</text>
</g>
<!-- 4&#45;&gt;30 -->
<g id="edge58" class="edge">
<title>4&#45;&gt;30</title>
<path fill="none" stroke="grey" stroke-width="2" d="M912.37,-808.24C807.32,-803.68 547.84,-775.61 448.5,-612 440.2,-598.32 440.25,-589.71 448.5,-576 466.14,-546.7 488.83,-560.09 516.5,-540 542.74,-520.95 568.95,-494.71 586.65,-475.66"/>
<polygon fill="grey" stroke="grey" stroke-width="2" points="589.28,-477.97 593.45,-468.23 584.12,-473.24 589.28,-477.97"/>
</g>
<!-- 5 -->
<g id="node6" class="node">
<title>5</title>
<path fill="none" stroke="#d88d56" stroke-width="2" d="M1289,-900C1289,-900 1188,-900 1188,-900 1182,-900 1176,-894 1176,-888 1176,-888 1176,-876 1176,-876 1176,-870 1182,-864 1188,-864 1188,-864 1289,-864 1289,-864 1295,-864 1301,-870 1301,-876 1301,-876 1301,-888 1301,-888 1301,-894 1295,-900 1289,-900"/>
<text text-anchor="middle" x="1238.5" y="-879.5" font-family="sans" font-size="10.00">prealignment_merged</text>
</g>
<!-- 5&#45;&gt;4 -->
<g id="edge21" class="edge">
<title>5&#45;&gt;4</title>
<path fill="none" stroke="grey" stroke-width="2" d="M1175.79,-865.38C1126.81,-853.18 1059.42,-836.39 1012.53,-824.71"/>
<polygon fill="grey" stroke="grey" stroke-width="2" points="1013.1,-821.24 1002.55,-822.22 1011.41,-828.04 1013.1,-821.24"/>
</g>
<!-- 6 -->
<g id="node7" class="node">
<title>6</title>
<path fill="none" stroke="#56d8a9" stroke-width="2" d="M1336,-972C1336,-972 1231,-972 1231,-972 1225,-972 1219,-966 1219,-960 1219,-960 1219,-948 1219,-948 1219,-942 1225,-936 1231,-936 1231,-936 1336,-936 1336,-936 1342,-936 1348,-942 1348,-948 1348,-948 1348,-960 1348,-960 1348,-966 1342,-972 1336,-972"/>
<text text-anchor="middle" x="1283.5" y="-951.5" font-family="sans" font-size="10.00">prealignment_fastp_pe</text>
</g>
<!-- 6&#45;&gt;2 -->
<g id="edge15" class="edge">
<title>6&#45;&gt;2</title>
<path fill="none" stroke="grey" stroke-width="2" d="M1348.3,-952.49C1443.37,-947.93 1609.5,-923.82 1609.5,-811 1609.5,-811 1609.5,-811 1609.5,-665 1609.5,-542.46 1415.13,-524.37 1324.73,-522.59"/>
<polygon fill="grey" stroke="grey" stroke-width="2" points="1324.55,-519.08 1314.5,-522.44 1324.45,-526.08 1324.55,-519.08"/>
</g>
<!-- 6&#45;&gt;5 -->
<g id="edge22" class="edge">
<title>6&#45;&gt;5</title>
<path fill="none" stroke="grey" stroke-width="2" d="M1272.38,-935.7C1267.14,-927.56 1260.8,-917.69 1255.02,-908.7"/>
<polygon fill="grey" stroke="grey" stroke-width="2" points="1257.85,-906.62 1249.5,-900.1 1251.96,-910.41 1257.85,-906.62"/>
</g>
<!-- 7&#45;&gt;0 -->
<g id="edge2" class="edge">
<title>7&#45;&gt;0</title>
<path fill="none" stroke="grey" stroke-width="2" d="M833.69,-647.87C824.57,-638.16 814.04,-625.31 807.5,-612 789.61,-575.62 787.5,-563.54 787.5,-523 787.5,-523 787.5,-523 787.5,-161 787.5,-120.03 788.33,-104.59 763.5,-72 749.93,-54.19 728.51,-41.23 709.98,-32.59"/>
<polygon fill="grey" stroke="grey" stroke-width="2" points="711.16,-29.28 700.6,-28.46 708.34,-35.69 711.16,-29.28"/>
</g>
<!-- 7&#45;&gt;3 -->
<g id="edge20" class="edge">
<title>7&#45;&gt;3</title>
<path fill="none" stroke="grey" stroke-width="2" d="M855.7,-647.7C857.6,-639.9 859.88,-630.51 861.98,-621.83"/>
<polygon fill="grey" stroke="grey" stroke-width="2" points="865.39,-622.65 864.35,-612.1 858.58,-621 865.39,-622.65"/>
</g>
<!-- 7&#45;&gt;10 -->
<g id="edge28" class="edge">
<title>7&#45;&gt;10</title>
<path fill="none" stroke="grey" stroke-width="2" d="M893.58,-647.88C917.3,-638.22 947.12,-626.09 972.2,-615.88"/>
<polygon fill="grey" stroke="grey" stroke-width="2" points="973.62,-619.08 981.56,-612.07 970.98,-612.6 973.62,-619.08"/>
</g>
<!-- 7&#45;&gt;11 -->
<g id="edge30" class="edge">
<title>7&#45;&gt;11</title>
<path fill="none" stroke="grey" stroke-width="2" d="M926.03,-659.9C1023.48,-652.64 1199.61,-637.49 1359.15,-612.12"/>
<polygon fill="grey" stroke="grey" stroke-width="2" points="1359.83,-615.56 1369.14,-610.51 1358.72,-608.65 1359.83,-615.56"/>
</g>
<!-- 23 -->
<g id="node24" class="node">
<title>23</title>
<path fill="none" stroke="#c6d856" stroke-width="2" d="M388.5,-540C388.5,-540 328.5,-540 328.5,-540 322.5,-540 316.5,-534 316.5,-528 316.5,-528 316.5,-516 316.5,-516 316.5,-510 322.5,-504 328.5,-504 328.5,-504 388.5,-504 388.5,-504 394.5,-504 400.5,-510 400.5,-516 400.5,-516 400.5,-528 400.5,-528 400.5,-534 394.5,-540 388.5,-540"/>
<text text-anchor="middle" x="358.5" y="-519.5" font-family="sans" font-size="10.00">dotnet_pisces</text>
</g>
<!-- 7&#45;&gt;23 -->
<g id="edge47" class="edge">
<title>7&#45;&gt;23</title>
<path fill="none" stroke="grey" stroke-width="2" d="M776.88,-649.62C747.51,-641.39 714.44,-629.3 687.5,-612 669.23,-600.27 673.67,-586.18 654.5,-576 558.47,-524.99 518.47,-564.4 412.5,-540 411.9,-539.86 411.3,-539.72 410.7,-539.58"/>
<polygon fill="grey" stroke="grey" stroke-width="2" points="411.33,-536.13 400.77,-537 409.57,-542.9 411.33,-536.13"/>
</g>
<!-- 7&#45;&gt;24 -->
<g id="edge50" class="edge">
<title>7&#45;&gt;24</title>
<path fill="none" stroke="grey" stroke-width="2" d="M776.89,-648.94C731.64,-638.66 674.07,-625.25 628.42,-614.37"/>
<polygon fill="grey" stroke="grey" stroke-width="2" points="629.11,-610.94 618.57,-612.02 627.48,-617.75 629.11,-610.94"/>
</g>
<!-- 7&#45;&gt;28 -->
<g id="edge56" class="edge">
<title>7&#45;&gt;28</title>
<path fill="none" stroke="grey" stroke-width="2" d="M825.27,-647.93C793.73,-628.08 738.64,-595.56 687.5,-576 631.35,-554.53 563.81,-539.94 517.88,-531.59"/>
<polygon fill="grey" stroke="grey" stroke-width="2" points="518.3,-528.11 507.84,-529.8 517.07,-535 518.3,-528.11"/>
</g>
<!-- 8&#45;&gt;2 -->
<g id="edge12" class="edge">
<title>8&#45;&gt;2</title>
<path fill="none" stroke="grey" stroke-width="2" d="M1457.24,-652.76C1478.9,-644.9 1501.74,-632.23 1514.5,-612 1523.04,-598.47 1524.49,-588.5 1514.5,-576 1491.23,-546.9 1386.5,-532.63 1324.98,-526.65"/>
<polygon fill="grey" stroke="grey" stroke-width="2" points="1325.05,-523.14 1314.76,-525.69 1324.39,-530.11 1325.05,-523.14"/>
</g>
<!-- 9 -->
<g id="node10" class="node">
<title>9</title>
<path fill="none" stroke="#56d873" stroke-width="2" d="M1177,-612C1177,-612 1138,-612 1138,-612 1132,-612 1126,-606 1126,-600 1126,-600 1126,-588 1126,-588 1126,-582 1132,-576 1138,-576 1138,-576 1177,-576 1177,-576 1183,-576 1189,-582 1189,-588 1189,-588 1189,-600 1189,-600 1189,-606 1183,-612 1177,-612"/>
<text text-anchor="middle" x="1157.5" y="-591.5" font-family="sans" font-size="10.00">qc_fastqc</text>
</g>
<!-- 9&#45;&gt;2 -->
<g id="edge17" class="edge">
<title>9&#45;&gt;2</title>
<path fill="none" stroke="grey" stroke-width="2" d="M1187.34,-575.88C1203.44,-566.64 1223.5,-555.13 1240.79,-545.21"/>
<polygon fill="grey" stroke="grey" stroke-width="2" points="1242.61,-548.2 1249.54,-540.19 1239.13,-542.13 1242.61,-548.2"/>
</g>
<!-- 10&#45;&gt;2 -->
<g id="edge11" class="edge">
<title>10&#45;&gt;2</title>
<path fill="none" stroke="grey" stroke-width="2" d="M1085.8,-575.97C1131.74,-563.4 1193.17,-546.61 1234.43,-535.33"/>
<polygon fill="grey" stroke="grey" stroke-width="2" points="1235.48,-538.67 1244.2,-532.65 1233.63,-531.91 1235.48,-538.67"/>
</g>
<!-- 11&#45;&gt;2 -->
<g id="edge18" class="edge">
<title>11&#45;&gt;2</title>
<path fill="none" stroke="grey" stroke-width="2" d="M1398.85,-575.88C1376.21,-565.84 1347.52,-553.13 1323.94,-542.69"/>
<polygon fill="grey" stroke="grey" stroke-width="2" points="1325.08,-539.36 1314.52,-538.51 1322.24,-545.76 1325.08,-539.36"/>
</g>
<!-- 12 -->
<g id="node13" class="node">
<title>12</title>
<path fill="none" stroke="#56d8c1" stroke-width="2" d="M1339.5,-612C1339.5,-612 1219.5,-612 1219.5,-612 1213.5,-612 1207.5,-606 1207.5,-600 1207.5,-600 1207.5,-588 1207.5,-588 1207.5,-582 1213.5,-576 1219.5,-576 1219.5,-576 1339.5,-576 1339.5,-576 1345.5,-576 1351.5,-582 1351.5,-588 1351.5,-588 1351.5,-600 1351.5,-600 1351.5,-606 1345.5,-612 1339.5,-612"/>
<text text-anchor="middle" x="1279.5" y="-591.5" font-family="sans" font-size="10.00">sample_order_for_multiqc</text>
</g>
<!-- 12&#45;&gt;2 -->
<g id="edge14" class="edge">
<title>12&#45;&gt;2</title>
<path fill="none" stroke="grey" stroke-width="2" d="M1279.5,-575.7C1279.5,-567.98 1279.5,-558.71 1279.5,-550.11"/>
<polygon fill="grey" stroke="grey" stroke-width="2" points="1283,-550.1 1279.5,-540.1 1276,-550.1 1283,-550.1"/>
</g>
<!-- 13&#45;&gt;0 -->
<g id="edge6" class="edge">
<title>13&#45;&gt;0</title>
<path fill="none" stroke="grey" stroke-width="2" d="M810.07,-719.86C794.99,-711.16 778.78,-699.18 768.5,-684 745.83,-650.51 749.5,-635.45 749.5,-595 749.5,-595 749.5,-595 749.5,-161 749.5,-115.64 718.98,-70.75 696.62,-43.95"/>
<polygon fill="grey" stroke="grey" stroke-width="2" points="699.16,-41.53 689.99,-36.23 693.86,-46.09 699.16,-41.53"/>
</g>
<!-- 13&#45;&gt;7 -->
<g id="edge25" class="edge">
<title>13&#45;&gt;7</title>
<path fill="none" stroke="grey" stroke-width="2" d="M848.49,-719.7C848.93,-711.98 849.46,-702.71 849.95,-694.11"/>
<polygon fill="grey" stroke="grey" stroke-width="2" points="853.45,-694.29 850.52,-684.1 846.46,-693.89 853.45,-694.29"/>
</g>
<!-- 14 -->
<g id="node15" class="node">
<title>14</title>
<path fill="none" stroke="#5692d8" stroke-width="2" d="M419.5,-180C419.5,-180 363.5,-180 363.5,-180 357.5,-180 351.5,-174 351.5,-168 351.5,-168 351.5,-156 351.5,-156 351.5,-150 357.5,-144 363.5,-144 363.5,-144 419.5,-144 419.5,-144 425.5,-144 431.5,-150 431.5,-156 431.5,-156 431.5,-168 431.5,-168 431.5,-174 425.5,-180 419.5,-180"/>
<text text-anchor="middle" x="391.5" y="-159.5" font-family="sans" font-size="10.00">copy_vcf_file</text>
</g>
<!-- 14&#45;&gt;0 -->
<g id="edge4" class="edge">
<title>14&#45;&gt;0</title>
<path fill="none" stroke="grey" stroke-width="2" d="M413.71,-143.79C439.49,-124.42 483.81,-92.92 525.5,-72 561.88,-53.74 606.1,-38.77 636.68,-29.45"/>
<polygon fill="grey" stroke="grey" stroke-width="2" points="637.92,-32.73 646.5,-26.51 635.92,-26.03 637.92,-32.73"/>
</g>
<!-- 26 -->
<g id="node27" class="node">
<title>26</title>
<path fill="none" stroke="#d86e56" stroke-width="2" d="M355.5,-108C355.5,-108 281.5,-108 281.5,-108 275.5,-108 269.5,-102 269.5,-96 269.5,-96 269.5,-84 269.5,-84 269.5,-78 275.5,-72 281.5,-72 281.5,-72 355.5,-72 355.5,-72 361.5,-72 367.5,-78 367.5,-84 367.5,-84 367.5,-96 367.5,-96 367.5,-102 361.5,-108 355.5,-108"/>
<text text-anchor="middle" x="318.5" y="-87.5" font-family="sans" font-size="10.00">snv_indels_tabix</text>
</g>
<!-- 14&#45;&gt;26 -->
<g id="edge53" class="edge">
<title>14&#45;&gt;26</title>
<path fill="none" stroke="grey" stroke-width="2" d="M373.46,-143.7C364.44,-135.05 353.38,-124.45 343.56,-115.03"/>
<polygon fill="grey" stroke="grey" stroke-width="2" points="345.98,-112.5 336.34,-108.1 341.13,-117.55 345.98,-112.5"/>
</g>
<!-- 15 -->
<g id="node16" class="node">
<title>15</title>
<path fill="none" stroke="#56d89a" stroke-width="2" d="M366.5,-396C366.5,-396 290.5,-396 290.5,-396 284.5,-396 278.5,-390 278.5,-384 278.5,-384 278.5,-372 278.5,-372 278.5,-366 284.5,-360 290.5,-360 290.5,-360 366.5,-360 366.5,-360 372.5,-360 378.5,-366 378.5,-372 378.5,-372 378.5,-384 378.5,-384 378.5,-390 372.5,-396 366.5,-396"/>
<text text-anchor="middle" x="328.5" y="-375.5" font-family="sans" font-size="10.00">snv_indels_bgzip</text>
</g>
<!-- 15&#45;&gt;14 -->
<g id="edge32" class="edge">
<title>15&#45;&gt;14</title>
<path fill="none" stroke="grey" stroke-width="2" d="M333.55,-359.85C344.47,-322.75 370.36,-234.81 383.52,-190.1"/>
<polygon fill="grey" stroke="grey" stroke-width="2" points="386.96,-190.81 386.43,-180.23 380.25,-188.84 386.96,-190.81"/>
</g>
<!-- 19 -->
<g id="node20" class="node">
<title>19</title>
<path fill="none" stroke="#a7d856" stroke-width="2" d="M283,-324C283,-324 162,-324 162,-324 156,-324 150,-318 150,-312 150,-312 150,-300 150,-300 150,-294 156,-288 162,-288 162,-288 283,-288 283,-288 289,-288 295,-294 295,-300 295,-300 295,-312 295,-312 295,-318 289,-324 283,-324"/>
<text text-anchor="middle" x="222.5" y="-303.5" font-family="sans" font-size="10.00">snv_indels_vt_decompose</text>
</g>
<!-- 15&#45;&gt;19 -->
<g id="edge41" class="edge">
<title>15&#45;&gt;19</title>
<path fill="none" stroke="grey" stroke-width="2" d="M302.57,-359.88C288.84,-350.81 271.79,-339.55 256.96,-329.76"/>
<polygon fill="grey" stroke="grey" stroke-width="2" points="258.8,-326.78 248.53,-324.19 254.95,-332.62 258.8,-326.78"/>
</g>
<!-- 20 -->
<g id="node21" class="node">
<title>20</title>
<path fill="none" stroke="#56a9d8" stroke-width="2" d="M479,-324C479,-324 402,-324 402,-324 396,-324 390,-318 390,-312 390,-312 390,-300 390,-300 390,-294 396,-288 402,-288 402,-288 479,-288 479,-288 485,-288 491,-294 491,-300 491,-300 491,-312 491,-312 491,-318 485,-324 479,-324"/>
<text text-anchor="middle" x="440.5" y="-303.5" font-family="sans" font-size="10.00">snv_indels_fix_af</text>
</g>
<!-- 15&#45;&gt;20 -->
<g id="edge42" class="edge">
<title>15&#45;&gt;20</title>
<path fill="none" stroke="grey" stroke-width="2" d="M350,-359.88C363.69,-350.72 381.75,-339.34 398.17,-329.48"/>
<polygon fill="grey" stroke="grey" stroke-width="2" points="400.28,-332.3 407.09,-324.19 396.71,-326.29 400.28,-332.3"/>
</g>
<!-- 21 -->
<g id="node22" class="node">
<title>21</title>
<path fill="none" stroke="#d8c356" stroke-width="2" d="M137,-36C137,-36 12,-36 12,-36 6,-36 0,-30 0,-24 0,-24 0,-12 0,-12 0,-6 6,0 12,0 12,0 137,0 137,0 143,0 149,-6 149,-12 149,-12 149,-24 149,-24 149,-30 143,-36 137,-36"/>
<text text-anchor="middle" x="74.5" y="-15.5" font-family="sans" font-size="10.00">snv_indels_bcftools_concat</text>
</g>
<!-- 15&#45;&gt;21 -->
<g id="edge43" class="edge">
<title>15&#45;&gt;21</title>
<path fill="none" stroke="grey" stroke-width="2" d="M278.31,-376.54C229.62,-373.86 156.53,-363.11 108.5,-324 74.44,-296.26 65.5,-278.93 65.5,-235 65.5,-235 65.5,-235 65.5,-161 65.5,-121 65.5,-74.65 67.79,-46.08"/>
<polygon fill="grey" stroke="grey" stroke-width="2" points="71.28,-46.35 68.79,-36.05 64.32,-45.65 71.28,-46.35"/>
</g>
<!-- 15&#45;&gt;26 -->
<g id="edge52" class="edge">
<title>15&#45;&gt;26</title>
<path fill="none" stroke="grey" stroke-width="2" d="M327.9,-359.97C326.24,-312.29 321.51,-177.18 319.47,-118.63"/>
<polygon fill="grey" stroke="grey" stroke-width="2" points="322.95,-118.18 319.11,-108.31 315.96,-118.42 322.95,-118.18"/>
</g>
<!-- 15&#45;&gt;32 -->
<g id="edge61" class="edge">
<title>15&#45;&gt;32</title>
<path fill="none" stroke="grey" stroke-width="2" d="M378.59,-363.92C423.57,-352.17 489.66,-334.91 537.24,-322.48"/>
<polygon fill="grey" stroke="grey" stroke-width="2" points="538.31,-325.82 547.1,-319.9 536.54,-319.04 538.31,-325.82"/>
</g>
<!-- 16 -->
<g id="node17" class="node">
<title>16</title>
<path fill="none" stroke="#78d856" stroke-width="2" d="M344,-36C344,-36 179,-36 179,-36 173,-36 167,-30 167,-24 167,-24 167,-12 167,-12 167,-6 173,0 179,0 179,0 344,0 344,0 350,0 356,-6 356,-12 356,-12 356,-24 356,-24 356,-30 350,-36 344,-36"/>
<text text-anchor="middle" x="261.5" y="-15.5" font-family="sans" font-size="10.00">annotation_background_annotation</text>
</g>
<!-- 16&#45;&gt;15 -->
<g id="edge33" class="edge">
<title>16&#45;&gt;15</title>
<path fill="none" stroke="grey" stroke-width="2" d="M225.08,-36.19C183.6,-58.58 121.5,-101.97 121.5,-161 121.5,-235 121.5,-235 121.5,-235 121.5,-275.45 112.84,-294.49 140.5,-324 173.07,-358.74 226.47,-371.31 268.06,-375.59"/>
<polygon fill="grey" stroke="grey" stroke-width="2" points="267.81,-379.08 278.08,-376.48 268.43,-372.11 267.81,-379.08"/>
</g>
<!-- 17 -->
<g id="node18" class="node">
<title>17</title>
<path fill="none" stroke="#9fd856" stroke-width="2" d="M283.5,-180C283.5,-180 171.5,-180 171.5,-180 165.5,-180 159.5,-174 159.5,-168 159.5,-168 159.5,-156 159.5,-156 159.5,-150 165.5,-144 171.5,-144 171.5,-144 283.5,-144 283.5,-144 289.5,-144 295.5,-150 295.5,-156 295.5,-156 295.5,-168 295.5,-168 295.5,-174 289.5,-180 283.5,-180"/>
<text text-anchor="middle" x="227.5" y="-159.5" font-family="sans" font-size="10.00">snv_indels_bcftools_sort</text>
</g>
<!-- 17&#45;&gt;16 -->
<g id="edge37" class="edge">
<title>17&#45;&gt;16</title>
<path fill="none" stroke="grey" stroke-width="2" d="M231.6,-143.87C237.42,-119.56 248.13,-74.82 255.03,-46.01"/>
<polygon fill="grey" stroke="grey" stroke-width="2" points="258.46,-46.73 257.38,-36.19 251.65,-45.1 258.46,-46.73"/>
</g>
<!-- 17&#45;&gt;26 -->
<g id="edge51" class="edge">
<title>17&#45;&gt;26</title>
<path fill="none" stroke="grey" stroke-width="2" d="M249.99,-143.7C261.46,-134.88 275.56,-124.03 287.98,-114.47"/>
<polygon fill="grey" stroke="grey" stroke-width="2" points="290.47,-116.98 296.26,-108.1 286.2,-111.43 290.47,-116.98"/>
</g>
<!-- 18 -->
<g id="node19" class="node">
<title>18</title>
<path fill="none" stroke="#5663d8" stroke-width="2" d="M281,-252C281,-252 168,-252 168,-252 162,-252 156,-246 156,-240 156,-240 156,-228 156,-228 156,-222 162,-216 168,-216 168,-216 281,-216 281,-216 287,-216 293,-222 293,-228 293,-228 293,-240 293,-240 293,-246 287,-252 281,-252"/>
<text text-anchor="middle" x="224.5" y="-231.5" font-family="sans" font-size="10.00">snv_indels_vt_normalize</text>
</g>
<!-- 18&#45;&gt;17 -->
<g id="edge39" class="edge">
<title>18&#45;&gt;17</title>
<path fill="none" stroke="grey" stroke-width="2" d="M225.24,-215.7C225.57,-207.98 225.97,-198.71 226.34,-190.11"/>
<polygon fill="grey" stroke="grey" stroke-width="2" points="229.84,-190.25 226.77,-180.1 222.84,-189.95 229.84,-190.25"/>
</g>
<!-- 19&#45;&gt;18 -->
<g id="edge40" class="edge">
<title>19&#45;&gt;18</title>
<path fill="none" stroke="grey" stroke-width="2" d="M222.99,-287.7C223.21,-279.98 223.48,-270.71 223.73,-262.11"/>
<polygon fill="grey" stroke="grey" stroke-width="2" points="227.22,-262.2 224.01,-252.1 220.23,-262 227.22,-262.2"/>
</g>
<!-- 20&#45;&gt;15 -->
<g id="edge36" class="edge">
<title>20&#45;&gt;15</title>
<path fill="none" stroke="grey" stroke-width="2" d="M418.9,-324.19C405.19,-333.35 387.13,-344.74 370.71,-354.59"/>
<polygon fill="grey" stroke="grey" stroke-width="2" points="368.61,-351.76 361.8,-359.88 372.18,-357.78 368.61,-351.76"/>
</g>
<!-- 21&#45;&gt;15 -->
<g id="edge35" class="edge">
<title>21&#45;&gt;15</title>
<path fill="none" stroke="grey" stroke-width="2" d="M80.21,-36.05C83.5,-62.71 83.5,-115.89 83.5,-161 83.5,-235 83.5,-235 83.5,-235 83.5,-278.93 92.44,-296.26 126.5,-324 166.76,-356.79 224.63,-369.64 268.19,-374.52"/>
<polygon fill="grey" stroke="grey" stroke-width="2" points="268.08,-378.03 278.38,-375.55 268.78,-371.06 268.08,-378.03"/>
</g>
<!-- 22 -->
<g id="node23" class="node">
<title>22</title>
<path fill="none" stroke="#bed856" stroke-width="2" d="M378.5,-468C378.5,-468 298.5,-468 298.5,-468 292.5,-468 286.5,-462 286.5,-456 286.5,-456 286.5,-444 286.5,-444 286.5,-438 292.5,-432 298.5,-432 298.5,-432 378.5,-432 378.5,-432 384.5,-432 390.5,-438 390.5,-444 390.5,-444 390.5,-456 390.5,-456 390.5,-462 384.5,-468 378.5,-468"/>
<text text-anchor="middle" x="338.5" y="-447.5" font-family="sans" font-size="10.00">bcftools_reheader</text>
</g>
<!-- 22&#45;&gt;15 -->
<g id="edge34" class="edge">
<title>22&#45;&gt;15</title>
<path fill="none" stroke="grey" stroke-width="2" d="M336.03,-431.7C334.93,-423.98 333.6,-414.71 332.37,-406.11"/>
<polygon fill="grey" stroke="grey" stroke-width="2" points="335.82,-405.51 330.94,-396.1 328.89,-406.5 335.82,-405.51"/>
</g>
<!-- 23&#45;&gt;22 -->
<g id="edge45" class="edge">
<title>23&#45;&gt;22</title>
<path fill="none" stroke="grey" stroke-width="2" d="M353.56,-503.7C351.33,-495.9 348.65,-486.51 346.17,-477.83"/>
<polygon fill="grey" stroke="grey" stroke-width="2" points="349.5,-476.76 343.39,-468.1 342.77,-478.68 349.5,-476.76"/>
</g>
<!-- 24&#45;&gt;7 -->
<g id="edge24" class="edge">
<title>24&#45;&gt;7</title>
<path fill="none" stroke="grey" stroke-width="2" d="M630.46,-612.05C675,-622.19 730.35,-635.09 774.56,-645.62"/>
<polygon fill="grey" stroke="grey" stroke-width="2" points="773.84,-649.05 784.38,-647.97 775.47,-642.24 773.84,-649.05"/>
</g>
<!-- 24&#45;&gt;23 -->
<g id="edge48" class="edge">
<title>24&#45;&gt;23</title>
<path fill="none" stroke="grey" stroke-width="2" d="M504.29,-575.88C475.81,-565.55 439.51,-552.38 410.26,-541.77"/>
<polygon fill="grey" stroke="grey" stroke-width="2" points="411.22,-538.4 400.63,-538.28 408.83,-544.98 411.22,-538.4"/>
</g>
<!-- 25 -->
<g id="node26" class="node">
<title>25</title>
<path fill="none" stroke="#d8bc56" stroke-width="2" d="M351.5,-612C351.5,-612 257.5,-612 257.5,-612 251.5,-612 245.5,-606 245.5,-600 245.5,-600 245.5,-588 245.5,-588 245.5,-582 251.5,-576 257.5,-576 257.5,-576 351.5,-576 351.5,-576 357.5,-576 363.5,-582 363.5,-588 363.5,-588 363.5,-600 363.5,-600 363.5,-606 357.5,-612 351.5,-612"/>
<text text-anchor="middle" x="304.5" y="-591.5" font-family="sans" font-size="10.00">snv_indels_bed_split</text>
</g>
<!-- 25&#45;&gt;23 -->
<g id="edge46" class="edge">
<title>25&#45;&gt;23</title>
<path fill="none" stroke="grey" stroke-width="2" d="M317.85,-575.7C324.26,-567.39 332.06,-557.28 339.11,-548.14"/>
<polygon fill="grey" stroke="grey" stroke-width="2" points="341.97,-550.16 345.31,-540.1 336.43,-545.88 341.97,-550.16"/>
</g>
<!-- 26&#45;&gt;0 -->
<g id="edge8" class="edge">
<title>26&#45;&gt;0</title>
<path fill="none" stroke="grey" stroke-width="2" d="M367.86,-79.27C439.69,-65.1 571.46,-39.12 635.95,-26.41"/>
<polygon fill="grey" stroke="grey" stroke-width="2" points="636.93,-29.78 646.07,-24.41 635.58,-22.91 636.93,-29.78"/>
</g>
<!-- 26&#45;&gt;16 -->
<g id="edge38" class="edge">
<title>26&#45;&gt;16</title>
<path fill="none" stroke="grey" stroke-width="2" d="M304.41,-71.7C297.58,-63.3 289.24,-53.07 281.74,-43.86"/>
<polygon fill="grey" stroke="grey" stroke-width="2" points="284.46,-41.65 275.43,-36.1 279.03,-46.07 284.46,-41.65"/>
</g>
<!-- 26&#45;&gt;21 -->
<g id="edge44" class="edge">
<title>26&#45;&gt;21</title>
<path fill="none" stroke="grey" stroke-width="2" d="M269.42,-74.92C233.29,-64.55 183.69,-50.32 143.57,-38.81"/>
<polygon fill="grey" stroke="grey" stroke-width="2" points="144.42,-35.42 133.85,-36.03 142.49,-42.15 144.42,-35.42"/>
</g>
<!-- 27 -->
<g id="node28" class="node">
<title>27</title>
<path fill="none" stroke="#d87556" stroke-width="2" d="M555.5,-252C555.5,-252 485.5,-252 485.5,-252 479.5,-252 473.5,-246 473.5,-240 473.5,-240 473.5,-228 473.5,-228 473.5,-222 479.5,-216 485.5,-216 485.5,-216 555.5,-216 555.5,-216 561.5,-216 567.5,-222 567.5,-228 567.5,-228 567.5,-240 567.5,-240 567.5,-246 561.5,-252 555.5,-252"/>
<text text-anchor="middle" x="520.5" y="-231.5" font-family="sans" font-size="10.00">copy_arriba_tsv</text>
</g>
<!-- 27&#45;&gt;0 -->
<g id="edge9" class="edge">
<title>27&#45;&gt;0</title>
<path fill="none" stroke="grey" stroke-width="2" d="M523.38,-215.82C529.46,-184.14 546.22,-115.75 583.5,-72 597.82,-55.19 618.88,-42.38 637.03,-33.57"/>
<polygon fill="grey" stroke="grey" stroke-width="2" points="638.6,-36.7 646.21,-29.33 635.66,-30.35 638.6,-36.7"/>
</g>
<!-- 28&#45;&gt;27 -->
<g id="edge54" class="edge">
<title>28&#45;&gt;27</title>
<path fill="none" stroke="grey" stroke-width="2" d="M467.84,-503.97C477.19,-456.19 503.73,-320.62 515.16,-262.27"/>
<polygon fill="grey" stroke="grey" stroke-width="2" points="518.62,-262.79 517.11,-252.31 511.75,-261.45 518.62,-262.79"/>
</g>
<!-- 28&#45;&gt;30 -->
<g id="edge59" class="edge">
<title>28&#45;&gt;30</title>
<path fill="none" stroke="grey" stroke-width="2" d="M499.73,-503.88C519.08,-494.47 543.27,-482.71 563.93,-472.67"/>
<polygon fill="grey" stroke="grey" stroke-width="2" points="565.67,-475.71 573.14,-468.19 562.61,-469.41 565.67,-475.71"/>
</g>
<!-- 28&#45;&gt;32 -->
<g id="edge62" class="edge">
<title>28&#45;&gt;32</title>
<path fill="none" stroke="grey" stroke-width="2" d="M473.47,-503.65C489.19,-473.67 523.19,-410.53 556.5,-360 562.59,-350.76 569.74,-341 576.29,-332.4"/>
<polygon fill="grey" stroke="grey" stroke-width="2" points="579.24,-334.31 582.59,-324.26 573.7,-330.03 579.24,-334.31"/>
</g>
<!-- 29 -->
<g id="node30" class="node">
<title>29</title>
<path fill="none" stroke="#569ad8" stroke-width="2" d="M709,-180C709,-180 638,-180 638,-180 632,-180 626,-174 626,-168 626,-168 626,-156 626,-156 626,-150 632,-144 638,-144 638,-144 709,-144 709,-144 715,-144 721,-150 721,-156 721,-156 721,-168 721,-168 721,-174 715,-180 709,-180"/>
<text text-anchor="middle" x="673.5" y="-159.5" font-family="sans" font-size="10.00">copy_arriba_pdf</text>
</g>
<!-- 29&#45;&gt;0 -->
<g id="edge3" class="edge">
<title>29&#45;&gt;0</title>
<path fill="none" stroke="grey" stroke-width="2" d="M673.5,-143.87C673.5,-119.67 673.5,-75.21 673.5,-46.39"/>
<polygon fill="grey" stroke="grey" stroke-width="2" points="677,-46.19 673.5,-36.19 670,-46.19 677,-46.19"/>
</g>
<!-- 30&#45;&gt;29 -->
<g id="edge57" class="edge">
<title>30&#45;&gt;29</title>
<path fill="none" stroke="grey" stroke-width="2" d="M625.24,-431.86C633.69,-422.14 643.24,-409.29 648.5,-396 676.29,-325.75 676.92,-234.82 675.17,-190.18"/>
<polygon fill="grey" stroke="grey" stroke-width="2" points="678.66,-189.94 674.7,-180.11 671.67,-190.27 678.66,-189.94"/>
</g>
<!-- 33 -->
<g id="node34" class="node">
<title>33</title>
<path fill="none" stroke="#56b9d8" stroke-width="2" d="M627.5,-396C627.5,-396 577.5,-396 577.5,-396 571.5,-396 565.5,-390 565.5,-384 565.5,-384 565.5,-372 565.5,-372 565.5,-366 571.5,-360 577.5,-360 577.5,-360 627.5,-360 627.5,-360 633.5,-360 639.5,-366 639.5,-372 639.5,-372 639.5,-384 639.5,-384 639.5,-390 633.5,-396 627.5,-396"/>
<text text-anchor="middle" x="602.5" y="-375.5" font-family="sans" font-size="10.00">convert_pdf</text>
</g>
<!-- 30&#45;&gt;33 -->
<g id="edge64" class="edge">
<title>30&#45;&gt;33</title>
<path fill="none" stroke="grey" stroke-width="2" d="M607.02,-431.7C606.36,-423.98 605.56,-414.71 604.82,-406.11"/>
<polygon fill="grey" stroke="grey" stroke-width="2" points="608.31,-405.77 603.97,-396.1 601.33,-406.37 608.31,-405.77"/>
</g>
<!-- 31 -->
<g id="node32" class="node">
<title>31</title>
<path fill="none" stroke="#c6d856" stroke-width="2" d="M937,-108C937,-108 866,-108 866,-108 860,-108 854,-102 854,-96 854,-96 854,-84 854,-84 854,-78 860,-72 866,-72 866,-72 937,-72 937,-72 943,-72 949,-78 949,-84 949,-84 949,-96 949,-96 949,-102 943,-108 937,-108"/>
<text text-anchor="middle" x="901.5" y="-87.5" font-family="sans" font-size="10.00">copy_config_file</text>
</g>
<!-- 31&#45;&gt;0 -->
<g id="edge7" class="edge">
<title>31&#45;&gt;0</title>
<path fill="none" stroke="grey" stroke-width="2" d="M853.98,-74.41C811.24,-61.29 749.34,-42.28 710.27,-30.29"/>
<polygon fill="grey" stroke="grey" stroke-width="2" points="711.2,-26.91 700.62,-27.32 709.15,-33.61 711.2,-26.91"/>
</g>
<!-- 32&#45;&gt;0 -->
<g id="edge5" class="edge">
<title>32&#45;&gt;0</title>
<path fill="none" stroke="grey" stroke-width="2" d="M596.93,-287.74C598.06,-257.9 602.08,-194.95 616.5,-144 626.59,-108.34 645.43,-69.92 658.68,-45.23"/>
<polygon fill="grey" stroke="grey" stroke-width="2" points="661.91,-46.61 663.63,-36.16 655.77,-43.26 661.91,-46.61"/>
</g>
<!-- 33&#45;&gt;32 -->
<g id="edge63" class="edge">
<title>33&#45;&gt;32</title>
<path fill="none" stroke="grey" stroke-width="2" d="M601.02,-359.7C600.36,-351.98 599.56,-342.71 598.82,-334.11"/>
<polygon fill="grey" stroke="grey" stroke-width="2" points="602.31,-333.77 597.97,-324.1 595.33,-334.37 602.31,-333.77"/>
</g>
</g>
</svg>
